<mxfile host="app.diagrams.net" modified="2022-03-03T10:10:38.190Z" agent="5.0 (Windows NT 10.0; Win64; x64) AppleWebKit/537.36 (KHTML, like Gecko) Chrome/98.0.4758.102 Safari/537.36 Edg/98.0.1108.62" etag="L59r7EqG8B1b-qzJ-kTy" version="16.6.4" type="github">
  <diagram id="rUwwqJuGxWPRQq9FNVHt" name="Page-1">
    <mxGraphModel dx="1422" dy="762" grid="1" gridSize="10" guides="1" tooltips="1" connect="1" arrows="1" fold="1" page="1" pageScale="1" pageWidth="827" pageHeight="1169" math="0" shadow="0">
      <root>
        <mxCell id="0" />
        <mxCell id="1" parent="0" />
        <mxCell id="rNkYngJvv3iwjcAp2nTv-7" value="Identity" style="whiteSpace=wrap;html=1;aspect=fixed;align=center;fillColor=#d5e8d4;strokeColor=#82b366;labelPosition=center;verticalLabelPosition=top;verticalAlign=bottom;" parent="1" vertex="1">
          <mxGeometry x="21" y="270" width="180" height="180" as="geometry" />
        </mxCell>
        <mxCell id="rNkYngJvv3iwjcAp2nTv-1" value="Management" style="whiteSpace=wrap;html=1;aspect=fixed;fillColor=#fff2cc;strokeColor=#d6b656;labelPosition=center;verticalLabelPosition=top;align=center;verticalAlign=bottom;" parent="1" vertex="1">
          <mxGeometry x="21" y="20" width="180" height="180" as="geometry" />
        </mxCell>
        <mxCell id="rNkYngJvv3iwjcAp2nTv-2" value="Keyvault Module" style="rounded=0;whiteSpace=wrap;html=1;" parent="1" vertex="1">
          <mxGeometry x="61" y="150" width="120" height="30" as="geometry" />
        </mxCell>
        <mxCell id="rNkYngJvv3iwjcAp2nTv-5" value="VNet/Subnet" style="rounded=0;whiteSpace=wrap;html=1;" parent="1" vertex="1">
          <mxGeometry x="61" y="300" width="115" height="30" as="geometry" />
        </mxCell>
        <mxCell id="rNkYngJvv3iwjcAp2nTv-10" style="edgeStyle=orthogonalEdgeStyle;rounded=0;orthogonalLoop=1;jettySize=auto;html=1;exitX=0;exitY=0.5;exitDx=0;exitDy=0;entryX=0;entryY=0.5;entryDx=0;entryDy=0;" parent="1" source="rNkYngJvv3iwjcAp2nTv-8" target="rNkYngJvv3iwjcAp2nTv-5" edge="1">
          <mxGeometry relative="1" as="geometry" />
        </mxCell>
        <mxCell id="rNkYngJvv3iwjcAp2nTv-8" value="VM" style="rounded=0;whiteSpace=wrap;html=1;" parent="1" vertex="1">
          <mxGeometry x="61" y="400" width="115" height="30" as="geometry" />
        </mxCell>
        <mxCell id="rNkYngJvv3iwjcAp2nTv-9" value="" style="curved=1;endArrow=classic;html=1;rounded=0;exitX=1;exitY=0.5;exitDx=0;exitDy=0;entryX=1;entryY=0.5;entryDx=0;entryDy=0;" parent="1" source="rNkYngJvv3iwjcAp2nTv-2" target="rNkYngJvv3iwjcAp2nTv-8" edge="1">
          <mxGeometry width="50" height="50" relative="1" as="geometry">
            <mxPoint x="261" y="240" as="sourcePoint" />
            <mxPoint x="311" y="190" as="targetPoint" />
            <Array as="points">
              <mxPoint x="290" y="200" />
              <mxPoint x="311" y="280" />
            </Array>
          </mxGeometry>
        </mxCell>
        <mxCell id="rNkYngJvv3iwjcAp2nTv-11" value="Identity" style="whiteSpace=wrap;html=1;aspect=fixed;align=center;fillColor=#d5e8d4;strokeColor=#82b366;labelPosition=center;verticalLabelPosition=top;verticalAlign=bottom;" parent="1" vertex="1">
          <mxGeometry x="470" y="270" width="180" height="180" as="geometry" />
        </mxCell>
        <mxCell id="rNkYngJvv3iwjcAp2nTv-12" value="Management" style="whiteSpace=wrap;html=1;aspect=fixed;fillColor=#fff2cc;strokeColor=#d6b656;labelPosition=center;verticalLabelPosition=top;align=center;verticalAlign=bottom;" parent="1" vertex="1">
          <mxGeometry x="470" y="20" width="180" height="180" as="geometry" />
        </mxCell>
        <mxCell id="rNkYngJvv3iwjcAp2nTv-20" style="edgeStyle=orthogonalEdgeStyle;rounded=0;orthogonalLoop=1;jettySize=auto;html=1;entryX=0.478;entryY=0.667;entryDx=0;entryDy=0;entryPerimeter=0;" parent="1" source="rNkYngJvv3iwjcAp2nTv-13" target="rNkYngJvv3iwjcAp2nTv-14" edge="1">
          <mxGeometry relative="1" as="geometry" />
        </mxCell>
        <mxCell id="rNkYngJvv3iwjcAp2nTv-13" value="Keyvault Module" style="rounded=0;whiteSpace=wrap;html=1;" parent="1" vertex="1">
          <mxGeometry x="502.5" y="70" width="120" height="30" as="geometry" />
        </mxCell>
        <mxCell id="rNkYngJvv3iwjcAp2nTv-14" value="Private Endpoint" style="rounded=0;whiteSpace=wrap;html=1;" parent="1" vertex="1">
          <mxGeometry x="505" y="120" width="115" height="30" as="geometry" />
        </mxCell>
        <mxCell id="rNkYngJvv3iwjcAp2nTv-22" style="edgeStyle=orthogonalEdgeStyle;rounded=0;orthogonalLoop=1;jettySize=auto;html=1;exitX=1;exitY=0.5;exitDx=0;exitDy=0;" parent="1" source="rNkYngJvv3iwjcAp2nTv-15" edge="1">
          <mxGeometry relative="1" as="geometry">
            <mxPoint x="620" y="140" as="targetPoint" />
            <Array as="points">
              <mxPoint x="670" y="360" />
              <mxPoint x="670" y="140" />
            </Array>
          </mxGeometry>
        </mxCell>
        <mxCell id="rNkYngJvv3iwjcAp2nTv-15" value="DNS Zones" style="rounded=0;whiteSpace=wrap;html=1;" parent="1" vertex="1">
          <mxGeometry x="510" y="345" width="115" height="30" as="geometry" />
        </mxCell>
        <mxCell id="aWkLyCMg5lvrkz8kRi3l-1" style="edgeStyle=orthogonalEdgeStyle;rounded=0;orthogonalLoop=1;jettySize=auto;html=1;exitX=0.5;exitY=1;exitDx=0;exitDy=0;entryX=0.5;entryY=0;entryDx=0;entryDy=0;" edge="1" parent="1" source="rNkYngJvv3iwjcAp2nTv-16" target="rNkYngJvv3iwjcAp2nTv-15">
          <mxGeometry relative="1" as="geometry" />
        </mxCell>
        <mxCell id="rNkYngJvv3iwjcAp2nTv-16" value="VNet/Subnet" style="rounded=0;whiteSpace=wrap;html=1;" parent="1" vertex="1">
          <mxGeometry x="510" y="300" width="115" height="30" as="geometry" />
        </mxCell>
        <mxCell id="rNkYngJvv3iwjcAp2nTv-17" style="edgeStyle=orthogonalEdgeStyle;rounded=0;orthogonalLoop=1;jettySize=auto;html=1;exitX=0;exitY=0.5;exitDx=0;exitDy=0;entryX=0;entryY=0.5;entryDx=0;entryDy=0;" parent="1" source="rNkYngJvv3iwjcAp2nTv-18" target="rNkYngJvv3iwjcAp2nTv-16" edge="1">
          <mxGeometry relative="1" as="geometry" />
        </mxCell>
        <mxCell id="rNkYngJvv3iwjcAp2nTv-18" value="VM" style="rounded=0;whiteSpace=wrap;html=1;" parent="1" vertex="1">
          <mxGeometry x="510" y="400" width="115" height="30" as="geometry" />
        </mxCell>
        <mxCell id="rNkYngJvv3iwjcAp2nTv-19" value="" style="curved=1;endArrow=classic;html=1;rounded=0;exitX=1;exitY=0.5;exitDx=0;exitDy=0;entryX=1;entryY=0.5;entryDx=0;entryDy=0;" parent="1" source="rNkYngJvv3iwjcAp2nTv-13" target="rNkYngJvv3iwjcAp2nTv-18" edge="1">
          <mxGeometry width="50" height="50" relative="1" as="geometry">
            <mxPoint x="710" y="240" as="sourcePoint" />
            <mxPoint x="760" y="190" as="targetPoint" />
            <Array as="points">
              <mxPoint x="740" y="120" />
              <mxPoint x="760" y="280" />
            </Array>
          </mxGeometry>
        </mxCell>
        <mxCell id="79Uzuwqai8cRuurvWPHS-2" style="edgeStyle=orthogonalEdgeStyle;rounded=0;orthogonalLoop=1;jettySize=auto;html=1;exitX=0.5;exitY=1;exitDx=0;exitDy=0;" parent="1" source="79Uzuwqai8cRuurvWPHS-1" target="rNkYngJvv3iwjcAp2nTv-2" edge="1">
          <mxGeometry relative="1" as="geometry" />
        </mxCell>
        <mxCell id="79Uzuwqai8cRuurvWPHS-3" style="edgeStyle=orthogonalEdgeStyle;rounded=0;orthogonalLoop=1;jettySize=auto;html=1;exitX=1;exitY=0.25;exitDx=0;exitDy=0;entryX=1;entryY=0.75;entryDx=0;entryDy=0;" parent="1" source="79Uzuwqai8cRuurvWPHS-1" target="rNkYngJvv3iwjcAp2nTv-5" edge="1">
          <mxGeometry relative="1" as="geometry">
            <Array as="points">
              <mxPoint x="220" y="98" />
              <mxPoint x="220" y="323" />
            </Array>
          </mxGeometry>
        </mxCell>
        <mxCell id="aWkLyCMg5lvrkz8kRi3l-2" style="edgeStyle=orthogonalEdgeStyle;rounded=0;orthogonalLoop=1;jettySize=auto;html=1;exitX=1;exitY=0.75;exitDx=0;exitDy=0;entryX=1;entryY=0.75;entryDx=0;entryDy=0;" edge="1" parent="1" source="79Uzuwqai8cRuurvWPHS-1" target="rNkYngJvv3iwjcAp2nTv-8">
          <mxGeometry relative="1" as="geometry">
            <Array as="points">
              <mxPoint x="240" y="113" />
              <mxPoint x="240" y="423" />
            </Array>
          </mxGeometry>
        </mxCell>
        <mxCell id="79Uzuwqai8cRuurvWPHS-1" value="LA Workspace" style="rounded=0;whiteSpace=wrap;html=1;" parent="1" vertex="1">
          <mxGeometry x="61" y="90" width="120" height="30" as="geometry" />
        </mxCell>
        <mxCell id="79Uzuwqai8cRuurvWPHS-7" style="edgeStyle=orthogonalEdgeStyle;rounded=0;orthogonalLoop=1;jettySize=auto;html=1;entryX=1;entryY=0.5;entryDx=0;entryDy=0;exitX=1;exitY=0.75;exitDx=0;exitDy=0;fillColor=#f8cecc;strokeColor=#b85450;" parent="1" source="79Uzuwqai8cRuurvWPHS-5" target="rNkYngJvv3iwjcAp2nTv-18" edge="1">
          <mxGeometry relative="1" as="geometry">
            <Array as="points">
              <mxPoint x="700" y="53" />
              <mxPoint x="700" y="415" />
            </Array>
          </mxGeometry>
        </mxCell>
        <mxCell id="79Uzuwqai8cRuurvWPHS-8" style="edgeStyle=orthogonalEdgeStyle;rounded=0;orthogonalLoop=1;jettySize=auto;html=1;exitX=1;exitY=0.25;exitDx=0;exitDy=0;entryX=1;entryY=0.75;entryDx=0;entryDy=0;fillColor=#f8cecc;strokeColor=#b85450;" parent="1" source="79Uzuwqai8cRuurvWPHS-5" target="rNkYngJvv3iwjcAp2nTv-16" edge="1">
          <mxGeometry relative="1" as="geometry">
            <Array as="points">
              <mxPoint x="660" y="38" />
              <mxPoint x="660" y="323" />
            </Array>
          </mxGeometry>
        </mxCell>
        <mxCell id="79Uzuwqai8cRuurvWPHS-9" style="edgeStyle=orthogonalEdgeStyle;rounded=0;orthogonalLoop=1;jettySize=auto;html=1;exitX=1;exitY=0.5;exitDx=0;exitDy=0;entryX=1;entryY=0.75;entryDx=0;entryDy=0;fillColor=#f8cecc;strokeColor=#b85450;" parent="1" source="79Uzuwqai8cRuurvWPHS-5" target="rNkYngJvv3iwjcAp2nTv-18" edge="1">
          <mxGeometry relative="1" as="geometry">
            <Array as="points">
              <mxPoint x="680" y="45" />
              <mxPoint x="680" y="423" />
            </Array>
          </mxGeometry>
        </mxCell>
        <mxCell id="79Uzuwqai8cRuurvWPHS-5" value="LA Workspace" style="rounded=0;whiteSpace=wrap;html=1;fillColor=#f8cecc;strokeColor=#b85450;" parent="1" vertex="1">
          <mxGeometry x="500" y="30" width="120" height="30" as="geometry" />
        </mxCell>
      </root>
    </mxGraphModel>
  </diagram>
</mxfile>
